<?xml version="1.0" encoding="iso-8859-1"?>
<!-- Uploaded to: SVG Repo, www.svgrepo.com, Generator: SVG Repo Mixer Tools -->
<svg fill="#000000" height="800px" width="800px" version="1.1" id="Layer_1" xmlns="http://www.w3.org/2000/svg" xmlns:xlink="http://www.w3.org/1999/xlink" 
	 viewBox="0 0 512 512" xml:space="preserve">
<g>
	<g>
		<path d="M503.83,228.766h-24.511V8.17c0-4.513-3.657-8.17-8.17-8.17H288.681C275.333,0,263.46,6.435,256,16.365
			C248.541,6.435,236.667,0,223.319,0H40.851c-4.512,0-8.17,3.657-8.17,8.17v220.596H8.17c-4.512,0-8.17,3.657-8.17,8.17v256
			c0,4.513,3.658,8.17,8.17,8.17h24.511v2.723c0,4.513,3.658,8.17,8.17,8.17h430.298c4.513,0,8.17-3.657,8.17-8.17v-2.723h24.511
			c4.513,0,8.17-3.657,8.17-8.17v-256C512,232.423,508.343,228.766,503.83,228.766z M264.17,40.851
			c0-13.515,10.996-24.511,24.511-24.511h174.298v277.787H288.681c-9.189,0-17.678,3.05-24.511,8.191V40.851z M49.021,16.34h174.298
			c13.516,0,24.511,10.996,24.511,24.511v261.467c-6.832-5.141-15.322-8.191-24.511-8.191H49.021V16.34z M94.152,495.66H49.021
			V375.83h30.735v73.532c0,4.513,3.658,8.17,8.17,8.17h6.226V495.66z M108.547,441.191h-12.45V375.83h12.45V441.191z
			 M155.623,495.66h-45.13v-38.128h6.225c4.512,0,8.17-3.657,8.17-8.17V375.83h16.34v73.532c0,4.513,3.658,8.17,8.17,8.17h6.225
			V495.66z M170.018,441.191h-12.449V375.83h12.449V441.191z M217.093,495.66h-45.131v-38.128h6.225c4.512,0,8.17-3.657,8.17-8.17
			V375.83h16.341v73.532c0,4.513,3.658,8.17,8.17,8.17h6.225V495.66z M231.489,441.191h-12.45V375.83h12.45V441.191z
			 M340.037,495.66h-45.131V400.34c0-4.513-3.657-8.17-8.17-8.17s-8.17,3.657-8.17,8.17v95.319h-45.13v-38.128h6.225
			c4.512,0,8.17-3.657,8.17-8.17V375.83h77.812v73.532c0,4.513,3.657,8.17,8.17,8.17h6.225V495.66z M354.431,441.191h-12.45V375.83
			h12.45V441.191z M401.507,495.66h-45.131v-38.128h6.226c4.513,0,8.17-3.657,8.17-8.17V375.83h16.339v73.532
			c0,4.513,3.657,8.17,8.17,8.17h6.226V495.66z M415.903,441.191h-12.451V375.83h12.451V441.191z M462.979,495.66h-45.131v-38.128
			h6.226c4.513,0,8.17-3.657,8.17-8.17V375.83h30.735V495.66z M495.66,484.766h-16.34V367.66c0-4.513-3.657-8.17-8.17-8.17H40.851
			c-4.512,0-8.17,3.657-8.17,8.17v117.106H16.34v-239.66h16.34v57.191c0,4.513,3.658,8.17,8.17,8.17h182.468
			c10.651,0,19.733,6.831,23.105,16.34H40.851c-4.512,0-8.17,3.657-8.17,8.17c0,4.513,3.658,8.17,8.17,8.17h430.298
			c4.513,0,8.17-3.657,8.17-8.17c0-4.513-3.657-8.17-8.17-8.17H265.576c3.373-9.509,12.455-16.34,23.105-16.34h182.468
			c4.513,0,8.17-3.657,8.17-8.17v-57.191h16.34V484.766z"/>
	</g>
</g>
<g>
	<g>
		<path d="M388.966,103.537c-10.845-1.177-14.498-1.572-14.498-13.665c0-4.513-3.657-8.17-8.17-8.17c-4.513,0-8.17,3.657-8.17,8.17
			v88.08c-4.81-2.324-10.393-3.655-16.34-3.655c-18.02,0-32.681,12.217-32.681,27.234s14.661,27.234,32.681,27.234
			s32.681-12.217,32.681-27.234v-84.209c4.421,1.557,9.01,2.055,12.736,2.459c10.845,1.177,14.498,1.572,14.498,13.665
			c0,4.513,3.657,8.17,8.17,8.17c4.513,0,8.17-3.657,8.17-8.17C418.043,106.69,399.841,104.716,388.966,103.537z M341.787,212.426
			c-8.858,0-16.34-4.988-16.34-10.894s7.483-10.894,16.34-10.894s16.34,4.988,16.34,10.894S350.645,212.426,341.787,212.426z"/>
	</g>
</g>
</svg>